<mxfile host="app.diagrams.net" modified="2021-08-31T02:50:58.172Z" agent="5.0 (Windows NT 10.0; Win64; x64) AppleWebKit/537.36 (KHTML, like Gecko) Chrome/92.0.4515.159 Safari/537.36" etag="4g34lOPMUBoR6E4m6bPK" version="14.9.5" type="github">
  <diagram id="xbNhdbkTUPQvUmLiyTn8" name="Page-1">
    <mxGraphModel dx="1422" dy="794" grid="1" gridSize="10" guides="1" tooltips="1" connect="1" arrows="1" fold="1" page="1" pageScale="1" pageWidth="827" pageHeight="1169" math="0" shadow="0">
      <root>
        <mxCell id="0" />
        <mxCell id="1" parent="0" />
        <mxCell id="xhFQ-MTkNrWi6kX71VLR-12" style="edgeStyle=orthogonalEdgeStyle;rounded=0;orthogonalLoop=1;jettySize=auto;html=1;" edge="1" parent="1" source="xhFQ-MTkNrWi6kX71VLR-4" target="xhFQ-MTkNrWi6kX71VLR-11">
          <mxGeometry relative="1" as="geometry" />
        </mxCell>
        <mxCell id="xhFQ-MTkNrWi6kX71VLR-4" value="时空大数据通用平台" style="rounded=1;whiteSpace=wrap;html=1;" vertex="1" parent="1">
          <mxGeometry x="60" y="230" width="140" height="40" as="geometry" />
        </mxCell>
        <mxCell id="xhFQ-MTkNrWi6kX71VLR-8" style="edgeStyle=orthogonalEdgeStyle;rounded=0;orthogonalLoop=1;jettySize=auto;html=1;entryX=0;entryY=0.5;entryDx=0;entryDy=0;" edge="1" parent="1" source="xhFQ-MTkNrWi6kX71VLR-5" target="xhFQ-MTkNrWi6kX71VLR-6">
          <mxGeometry relative="1" as="geometry" />
        </mxCell>
        <mxCell id="xhFQ-MTkNrWi6kX71VLR-9" style="edgeStyle=orthogonalEdgeStyle;rounded=0;orthogonalLoop=1;jettySize=auto;html=1;entryX=0;entryY=0.5;entryDx=0;entryDy=0;" edge="1" parent="1" source="xhFQ-MTkNrWi6kX71VLR-5" target="xhFQ-MTkNrWi6kX71VLR-7">
          <mxGeometry relative="1" as="geometry" />
        </mxCell>
        <mxCell id="xhFQ-MTkNrWi6kX71VLR-23" style="edgeStyle=orthogonalEdgeStyle;rounded=0;orthogonalLoop=1;jettySize=auto;html=1;" edge="1" parent="1" source="xhFQ-MTkNrWi6kX71VLR-5" target="xhFQ-MTkNrWi6kX71VLR-4">
          <mxGeometry relative="1" as="geometry" />
        </mxCell>
        <mxCell id="xhFQ-MTkNrWi6kX71VLR-5" value="专项应用系统" style="rounded=1;whiteSpace=wrap;html=1;" vertex="1" parent="1">
          <mxGeometry x="60" y="430" width="140" height="40" as="geometry" />
        </mxCell>
        <mxCell id="xhFQ-MTkNrWi6kX71VLR-18" style="edgeStyle=orthogonalEdgeStyle;rounded=0;orthogonalLoop=1;jettySize=auto;html=1;" edge="1" parent="1" source="xhFQ-MTkNrWi6kX71VLR-6" target="xhFQ-MTkNrWi6kX71VLR-16">
          <mxGeometry relative="1" as="geometry" />
        </mxCell>
        <mxCell id="xhFQ-MTkNrWi6kX71VLR-6" value="管理平台" style="rounded=1;whiteSpace=wrap;html=1;" vertex="1" parent="1">
          <mxGeometry x="290" y="390" width="140" height="40" as="geometry" />
        </mxCell>
        <mxCell id="xhFQ-MTkNrWi6kX71VLR-22" style="edgeStyle=orthogonalEdgeStyle;rounded=0;orthogonalLoop=1;jettySize=auto;html=1;" edge="1" parent="1" source="xhFQ-MTkNrWi6kX71VLR-7" target="xhFQ-MTkNrWi6kX71VLR-20">
          <mxGeometry relative="1" as="geometry" />
        </mxCell>
        <mxCell id="xhFQ-MTkNrWi6kX71VLR-7" value="可视化系统" style="rounded=1;whiteSpace=wrap;html=1;" vertex="1" parent="1">
          <mxGeometry x="290" y="480" width="140" height="40" as="geometry" />
        </mxCell>
        <mxCell id="xhFQ-MTkNrWi6kX71VLR-14" style="edgeStyle=orthogonalEdgeStyle;rounded=0;orthogonalLoop=1;jettySize=auto;html=1;" edge="1" parent="1" source="xhFQ-MTkNrWi6kX71VLR-11" target="xhFQ-MTkNrWi6kX71VLR-13">
          <mxGeometry relative="1" as="geometry" />
        </mxCell>
        <mxCell id="xhFQ-MTkNrWi6kX71VLR-11" value="架构师" style="ellipse;whiteSpace=wrap;html=1;" vertex="1" parent="1">
          <mxGeometry x="320" y="230" width="100" height="40" as="geometry" />
        </mxCell>
        <mxCell id="xhFQ-MTkNrWi6kX71VLR-13" value="3~5个开发" style="ellipse;whiteSpace=wrap;html=1;" vertex="1" parent="1">
          <mxGeometry x="470" y="230" width="100" height="40" as="geometry" />
        </mxCell>
        <mxCell id="xhFQ-MTkNrWi6kX71VLR-15" style="edgeStyle=orthogonalEdgeStyle;rounded=0;orthogonalLoop=1;jettySize=auto;html=1;" edge="1" parent="1" source="xhFQ-MTkNrWi6kX71VLR-16" target="xhFQ-MTkNrWi6kX71VLR-17">
          <mxGeometry relative="1" as="geometry" />
        </mxCell>
        <mxCell id="xhFQ-MTkNrWi6kX71VLR-16" value="架构师" style="ellipse;whiteSpace=wrap;html=1;" vertex="1" parent="1">
          <mxGeometry x="500" y="390" width="100" height="40" as="geometry" />
        </mxCell>
        <mxCell id="xhFQ-MTkNrWi6kX71VLR-17" value="3~5个开发" style="ellipse;whiteSpace=wrap;html=1;" vertex="1" parent="1">
          <mxGeometry x="650" y="390" width="100" height="40" as="geometry" />
        </mxCell>
        <mxCell id="xhFQ-MTkNrWi6kX71VLR-19" style="edgeStyle=orthogonalEdgeStyle;rounded=0;orthogonalLoop=1;jettySize=auto;html=1;" edge="1" parent="1" source="xhFQ-MTkNrWi6kX71VLR-20" target="xhFQ-MTkNrWi6kX71VLR-21">
          <mxGeometry relative="1" as="geometry" />
        </mxCell>
        <mxCell id="xhFQ-MTkNrWi6kX71VLR-20" value="架构师" style="ellipse;whiteSpace=wrap;html=1;" vertex="1" parent="1">
          <mxGeometry x="500" y="480" width="100" height="40" as="geometry" />
        </mxCell>
        <mxCell id="xhFQ-MTkNrWi6kX71VLR-21" value="3~5个开发" style="ellipse;whiteSpace=wrap;html=1;" vertex="1" parent="1">
          <mxGeometry x="650" y="480" width="100" height="40" as="geometry" />
        </mxCell>
      </root>
    </mxGraphModel>
  </diagram>
</mxfile>
